# File created by Blade
# Date/Time:  Thu Jan 15 19:03:44 2015
#---------------------------------------------------------
:version 1.10
:name HOM
:units
  mass 1.0
  length 1.000000
  angle deg
:documentation
     Acclaim Skeleton File
:root
   axis xyz
   order TX TY TZ RX RY RZ
   position 0.000000 0.000000 0.000000
   orientation 0 0 0
:bonedata
   begin
      id 1
      name Spine_dum
      direction 0.000000 1.000000 0.000000
      length 4.354460
      axis 0.0 0.0 0.0 xyz
   end
   begin
      id 2
      name LeftUpLeg_dum
      direction 1.000000 0.000000 0.000000
      length 4.291077
      axis 0.0 0.0 0.0 xyz
   end
   begin
      id 3
      name RightUpLeg_dum
      direction -1.000000 0.000000 0.000000
      length 4.291077
      axis 0.0 0.0 0.0 xyz
   end
   begin
      id 4
      name Spine
      direction 0.000000 1.000000 0.000000
      length 0.000000
      axis 0.0 0.0 0.0 xyz
      dof rx ry rz
   end
   begin
      id 5
      name Spine_dum1
      direction 0.000000 1.000000 0.000000
      length 16.581769
      axis 0.0 0.0 0.0 xyz
   end
   begin
      id 6
      name Spine_dum2
      direction 0.000000 1.000000 0.000000
      length 12.903700
      axis 0.0 0.0 0.0 xyz
   end
   begin
      id 7
      name Spine_dum3
      direction 0.000000 1.000000 0.000000
      length 12.903700
      axis 0.0 0.0 0.0 xyz
   end
   begin
      id 8
      name Head
      direction 0.000000 1.000000 0.000000
      length 4.527550
      axis 0.0 0.0 0.0 xyz
      dof rx ry rz
   end
   begin
      id 9
      name LeftShoulder
      direction 1.000000 0.000000 0.000000
      length 6.942033
      axis 0.0 0.0 -90.0 xyz
      dof rx ry rz
   end
   begin
      id 10
      name LeftArm
      direction 1.000000 0.000000 0.000000
      length 11.010391
      axis 0.0 0.0 -90.0 xyz
      dof rx ry rz
   end
   begin
      id 11
      name LeftForeArm
      direction 1.000000 0.000000 0.000000
      length 8.054994
      axis 0.0 0.0 -90.0 xyz
      dof rz ry rx
   end
   begin
      id 12
      name LeftHand
      direction 0.000000 0.000000 0.000000
      length 0.000000
      axis 0.0 0.0 -90.0 xyz
      dof rx ry rz
   end
   begin
      id 13
      name LeftHand_dum1
      direction 0.000000 0.000000 0.000000
      length 0.000000
      axis 0.0 0.0 -90.0 xyz
   end
   begin
      id 14
      name LeftHand_dum2
      direction 1.000000 0.000000 0.000000
      length 3.937000
      axis 0.0 0.0 -90.0 xyz
   end
   begin
      id 15
      name LeftHandThumb1
      direction 0.000000 0.000000 1.000000
      length 3.937000
      axis 0.0 0.0 -90.0 xyz
      dof rx ry rz
   end
   begin
      id 16
      name RightShoulder
      direction -1.000000 0.000000 0.000000
      length 6.942033
      axis 0.0 0.0 90.0 xyz
      dof rx ry rz
   end
   begin
      id 17
      name RightArm
      direction -1.000000 0.000000 0.000000
      length 11.010391
      axis 0.0 0.0 90.0 xyz
      dof rx ry rz
   end
   begin
      id 18
      name RightForeArm
      direction -1.000000 0.000000 0.000000
      length 8.054994
      axis 0.0 0.0 90.0 xyz
      dof rz ry rx
   end
   begin
      id 19
      name RightHand
      direction 0.000000 0.000000 0.000000
      length 0.000000
      axis 0.0 0.0 90.0 xyz
      dof rx ry rz
   end
   begin
      id 20
      name RightHand_dum1
      direction 0.000000 0.000000 0.000000
      length 0.000000
      axis 0.0 0.0 90.0 xyz
   end
   begin
      id 21
      name RightHand_dum2
      direction -1.000000 0.000000 0.000000
      length 3.937000
      axis 0.0 0.0 90.0 xyz
   end
   begin
      id 22
      name RightHandThumb1
      direction 0.000000 0.000000 1.000000
      length 3.937000
      axis 0.0 0.0 90.0 xyz
      dof rx ry rz
   end
   begin
      id 23
      name LeftUpLeg
      direction 0.000000 -1.000000 0.000000
      length 17.039958
      axis 0.0 0.0 0.0 xyz
      dof rx ry rz
   end
   begin
      id 24
      name LeftLeg
      direction 0.000000 -1.000000 0.000000
      length 16.939743
      axis 0.0 0.0 0.0 xyz
      dof rx ry rz
   end
   begin
      id 25
      name LeftFoot
      direction 0.000000 -0.258819 0.965926
      length 5.235044
      axis 15.0 0.0 0.0 xyz
      dof rx ry rz
   end
   begin
      id 26
      name LeftToeBase
      direction 0.000000 0.000000 1.000000
      length 2.952750
      axis 0.0 0.0 0.0 xyz
      dof rx ry rz
   end
   begin
      id 27
      name RightUpLeg
      direction 0.000000 -1.000000 0.000000
      length 17.039958
      axis 0.0 0.0 0.0 xyz
      dof rx ry rz
   end
   begin
      id 28
      name RightLeg
      direction 0.000000 -1.000000 0.000000
      length 16.939743
      axis 0.0 0.0 0.0 xyz
      dof rx ry rz
   end
   begin
      id 29
      name RightFoot
      direction 0.000000 -0.258819 0.965926
      length 5.235044
      axis 15.0 0.0 0.0 xyz
      dof rx ry rz
   end
   begin
      id 30
      name RightToeBase
      direction 0.000000 0.000000 1.000000
      length 2.952750
      axis 0.0 0.0 0.0 xyz
      dof rx ry rz
   end
:hierarchy
   begin
      root Spine_dum LeftUpLeg_dum RightUpLeg_dum
      Spine_dum Spine
      LeftUpLeg_dum LeftUpLeg
      RightUpLeg_dum RightUpLeg
      Spine Spine_dum1 Spine_dum2 Spine_dum3
      Spine_dum1 Head
      Spine_dum2 LeftShoulder
      Spine_dum3 RightShoulder
      LeftShoulder LeftArm
      LeftArm LeftForeArm
      LeftForeArm LeftHand
      LeftHand LeftHand_dum1 LeftHand_dum2
      LeftHand_dum1 LeftHandThumb1
      RightShoulder RightArm
      RightArm RightForeArm
      RightForeArm RightHand
      RightHand RightHand_dum1 RightHand_dum2
      RightHand_dum1 RightHandThumb1
      LeftUpLeg LeftLeg
      LeftLeg LeftFoot
      LeftFoot LeftToeBase
      RightUpLeg RightLeg
      RightLeg RightFoot
      RightFoot RightToeBase
   end

# File created by Blade
# Date/Time:  Thu Jan 15 19:03:33 2015
# Frame Rate: 120.000 fps
#------------------------------------------------------
:FULLY-SPECIFIED
:DEGREES
2717
root 5.815173 35.644701 -8.212593 -179.835251 -0.056392 -179.478627
Spine 2.368567 12.839730 -0.428521
Head -7.025573 -3.472250 10.498240
LeftShoulder -8.375622 17.126144 -3.946086
LeftArm 6.293875 -19.712440 -76.767883
LeftForeArm -0.000000 0.171311 3.631104
LeftHand 6.762311 -0.000000 2.525201
LeftHandThumb1 -26.253704 33.147579 0.000000
RightShoulder -19.764577 -8.054591 4.342337
RightArm -0.101110 13.566299 75.097348
RightForeArm -0.000000 -35.350707 18.007289
RightHand -3.995842 -0.000000 2.499105
RightHandThumb1 -24.326973 -32.862282 -0.000000
LeftUpLeg -10.312859 9.951796 -2.360978
LeftLeg 28.905460 -0.000000 -0.000000
LeftFoot -29.130490 24.084824 -12.990728
LeftToeBase 8.940066 -0.000000 -0.000000
RightUpLeg 2.439110 -5.858722 5.455851
RightLeg 3.233860 -0.000000 -0.000000
RightFoot -18.418224 -27.968919 7.283448
RightToeBase 15.976034 -0.000000 -0.000000
2718
root 5.750815 35.671439 -8.242344 -179.981903 0.459467 -179.786514
Spine 2.414130 13.198522 -0.665311
Head -7.008328 -3.546724 10.474520
LeftShoulder -8.402364 17.475399 -4.108948
LeftArm 6.081564 -20.310939 -77.093209
LeftForeArm -0.000000 -0.264264 3.538730
LeftHand 6.728462 -0.000000 1.898655
LeftHandThumb1 -26.253704 33.147579 0.000000
RightShoulder -19.981627 -8.658306 4.347070
RightArm -0.146276 11.510689 75.569264
RightForeArm -0.000000 -35.262785 18.728053
RightHand -3.878424 -0.000000 2.455628
RightHandThumb1 -24.326973 -32.862282 -0.000000
LeftUpLeg -10.420183 10.234883 -2.794140
LeftLeg 29.725030 -0.000000 -0.000000
LeftFoot -29.234959 23.873655 -13.173384
LeftToeBase 8.772266 -0.000000 -0.000000
RightUpLeg 2.221775 -5.079257 5.055969
RightLeg 4.007340 -0.000000 -0.000000
RightFoot -18.647352 -28.239062 7.343630
RightToeBase 15.852797 -0.000000 -0.000000
2719
root 5.703743 35.700534 -8.282120 -180.251268 0.509031 -180.093622
Spine 2.559016 13.087517 -0.951380
Head -6.920063 -3.594925 10.560131
LeftShoulder -8.376015 17.812337 -4.095144
LeftArm 5.936925 -20.468272 -77.482879
LeftForeArm 0.000000 -0.052294 3.472906
LeftHand 6.596269 -0.000000 2.301358
LeftHandThumb1 -26.253704 33.147579 0.000000
RightShoulder -20.196141 -9.368587 4.379613
RightArm -0.157389 9.500250 76.142543
RightForeArm -0.000000 -35.363112 19.595987
RightHand -3.893141 -0.000000 2.598385
RightHandThumb1 -24.326973 -32.862282 -0.000000
LeftUpLeg -10.422329 10.093852 -3.173929
LeftLeg 30.556481 -0.000000 -0.000000
LeftFoot -29.220828 23.511340 -13.412064
LeftToeBase 8.705805 -0.000000 -0.000000
RightUpLeg 2.231417 -4.650489 4.688041
RightLeg 4.631907 -0.000000 -0.000000
RightFoot -18.827179 -28.628670 7.413519
RightToeBase 15.746280 -0.000000 -0.000000
2720
root 5.649728 35.733774 -8.312586 -180.596614 0.703216 -180.450010
Spine 2.816559 13.079997 -1.256201
Head -6.810798 -3.594229 10.620996
LeftShoulder -8.288716 18.106414 -4.068454
LeftArm 5.857289 -20.497587 -77.835043
LeftForeArm -0.000000 -0.018376 3.509421
LeftHand 6.197283 -0.000000 2.040335
LeftHandThumb1 -26.253704 33.147579 0.000000
RightShoulder -20.426138 -10.055111 4.269321
RightArm -0.101413 7.322013 76.808564
RightForeArm 0.000000 -35.136950 20.347779
RightHand -3.477691 -0.000000 1.908855
RightHandThumb1 -24.326973 -32.862282 -0.000000
LeftUpLeg -10.297269 10.065848 -3.598869
LeftLeg 31.286258 -0.000000 -0.000000
LeftFoot -29.018263 23.175791 -13.626058
LeftToeBase 8.589464 -0.000000 -0.000000
RightUpLeg 2.242729 -3.945066 4.264309
RightLeg 5.371972 -0.000000 -0.000000
RightFoot -19.035776 -29.071069 7.503410
RightToeBase 15.687890 -0.000000 -0.000000
2721
root 5.586497 35.771484 -8.333044 -180.937764 0.977076 -180.837746
Spine 3.090299 13.058508 -1.553417
Head -6.691223 -3.514417 10.546904
LeftShoulder -8.162666 18.481290 -4.086285
LeftArm 5.941489 -20.074182 -78.183811
LeftForeArm -0.000000 0.193213 3.495525
LeftHand 6.204191 0.000000 2.671718
LeftHandThumb1 -26.253704 33.147579 0.000000
RightShoulder -20.615930 -10.740002 4.063536
RightArm -0.014915 4.927095 77.479850
RightForeArm -0.000000 -34.983489 21.122523
RightHand -3.224562 -0.000000 1.306063
RightHandThumb1 -24.326973 -32.862282 -0.000000
LeftUpLeg -10.135580 10.025912 -4.068091
LeftLeg 31.922565 -0.000000 -0.000000
LeftFoot -28.680041 22.901631 -13.791624
LeftToeBase 8.681156 -0.000000 -0.000000
RightUpLeg 2.175425 -3.069406 3.801190
RightLeg 6.220824 -0.000000 -0.000000
RightFoot -19.276869 -29.512720 7.686381
RightToeBase 15.618779 -0.000000 -0.000000
2722
root 5.532857 35.812964 -8.361594 -181.252333 1.061994 -181.208653
Spine 3.272588 12.779644 -1.914332
Head -6.457639 -3.358504 10.590946
LeftShoulder -8.017617 18.852131 -4.010130
LeftArm 6.053899 -19.340679 -78.464380
LeftForeArm 0.000000 0.196270 3.545164
LeftHand 5.966002 -0.000000 2.960010
LeftHandThumb1 -26.253704 33.147579 0.000000
RightShoulder -20.768421 -11.431873 3.855741
RightArm -0.037147 2.121437 78.111182
RightForeArm -0.000000 -34.297105 22.121956
RightHand -3.281750 -0.000000 0.693884
RightHandThumb1 -24.326973 -32.862282 -0.000000
LeftUpLeg -9.956433 9.829673 -4.503405
LeftLeg 32.492654 -0.000000 -0.000000
LeftFoot -28.188451 22.580409 -14.004360
LeftToeBase 8.738858 -0.000000 -0.000000
RightUpLeg 2.103370 -2.285892 3.365628
RightLeg 7.074780 -0.000000 -0.000000
RightFoot -19.332352 -29.997460 7.704709
RightToeBase 15.329222 -0.000000 -0.000000
